Coordinates
version=1
nRows=18
nColumns=63
inDegrees=yes

Units are S.I. units (second, meters, Newtons, ...)
If the header above contains a line with 'inDegrees', this indicates whether rotational values are in degrees (yes) or radians (no).

endheader
time	pelvis_tilt	pelvis_list	pelvis_rotation	pelvis_tx	pelvis_ty	pelvis_tz	hip_flexion_r	hip_adduction_r	hip_rotation_r	knee_angle_r	knee_angle_r_beta	ankle_angle_r	subtalar_angle_r	mtp_angle_r	hip_flexion_l	hip_adduction_l	hip_rotation_l	knee_angle_l	knee_angle_l_beta	ankle_angle_l	subtalar_angle_l	mtp_angle_l	L5_S1_Flex_Ext	L5_S1_Lat_Bending	L5_S1_axial_rotation	L4_L5_Flex_Ext	L4_L5_Lat_Bending	L4_L5_axial_rotation	L3_L4_Flex_Ext	L3_L4_Lat_Bending	L3_L4_axial_rotation	L2_L3_Flex_Ext	L2_L3_Lat_Bending	L2_L3_axial_rotation	L1_L2_Flex_Ext	L1_L2_Lat_Bending	L1_L2_axial_rotation	L1_T12_Flex_Ext	L1_T12_Lat_Bending	L1_T12_axial_rotation	Abs_r3	Abs_r2	Abs_r1	Abs_t1	Abs_t2	neck_flexion	neck_bending	neck_rotation	arm_flex_r	arm_add_r	arm_rot_r	elbow_flex_r	pro_sup_r	wrist_flex_r	wrist_dev_r	arm_flex_l	arm_add_l	arm_rot_l	elbow_flex_l	pro_sup_l	wrist_flex_l	wrist_dev_l
2.779661	3.471992	6.597042	93.840937	0.032273	1.016933	0.708449	-7.836127	2.160486	8.948619	3.652690	0.063751	20.380640	-3.477416	0.000000	-7.693317	-1.564539	-2.557879	2.972510	0.051880	22.294721	-2.676003	0.000000	-0.466816	0.200718	1.231683	-0.866925	0.266955	1.308663	-0.766933	0.488026	1.308663	-0.533525	0.488026	1.077722	-0.433486	0.409304	1.000742	-0.266739	0.310912	0.923762	-3.334423	2.270562	6.850249	0.000000	0.000000	5.258730	0.066068	-5.196877	34.115512	-12.137787	141.675647	0.081482	1.589304	-71.317353	-22.754585	38.968872	-11.628543	144.187098	0.072503	1.171573	-70.318716	-24.278676
2.796610	3.209646	7.008621	94.197628	0.032651	1.018107	0.710037	-8.202938	2.012669	8.331612	3.737587	0.065233	20.383402	-3.186843	0.000000	-7.942731	-1.444069	-2.946346	3.207740	0.055986	22.311275	-1.667781	0.000000	-0.492478	0.172748	1.143292	-0.914581	0.229755	1.214748	-0.809092	0.420019	1.214748	-0.562853	0.420019	1.000381	-0.457315	0.352268	0.928925	-0.281402	0.267587	0.857469	-3.517720	1.954159	6.358649	0.000000	0.000000	4.382596	0.274682	-5.160737	34.576866	-11.512177	140.635488	0.083303	1.470255	-71.262275	-22.756721	39.833277	-11.697305	144.519400	0.070865	1.145840	-69.883193	-24.287180
2.813559	2.935912	7.391070	94.622380	0.033004	1.019186	0.711364	-8.582292	1.865484	7.743999	3.773914	0.065867	20.378599	-3.016872	0.000000	-8.173702	-1.331131	-3.243433	3.436834	0.059984	22.343093	-0.669272	0.000000	-0.513788	0.141605	1.037864	-0.954156	0.188335	1.102730	-0.844102	0.344299	1.102730	-0.587208	0.344299	0.908131	-0.477104	0.288762	0.843264	-0.293578	0.219347	0.778398	-3.669936	1.601869	5.772287	0.000000	0.000000	3.566799	0.503205	-5.170544	35.022819	-10.837485	139.445184	0.084084	1.328800	-70.846442	-22.659417	40.500302	-11.839363	145.001055	0.069322	1.135112	-69.767639	-24.222959
2.830508	2.650110	7.768769	95.050912	0.033386	1.020196	0.712479	-8.986779	1.711258	7.266024	3.776487	0.065912	20.370904	-2.987245	0.000000	-8.414148	-1.219589	-3.643468	3.661290	0.063902	22.427122	0.493775	0.000000	-0.535829	0.108793	0.933093	-0.995089	0.144695	0.991412	-0.880314	0.264519	0.991412	-0.612399	0.264519	0.816457	-0.497571	0.221851	0.758138	-0.306173	0.168520	0.699820	-3.827376	1.230688	5.189585	0.000000	0.000000	2.814701	0.696529	-5.185156	35.481045	-10.159515	138.282982	0.083973	1.187566	-70.393974	-22.507398	41.020491	-12.060146	145.596500	0.067820	1.127900	-69.749759	-24.205734
2.847458	2.373814	8.128898	95.456709	0.033757	1.021114	0.713417	-9.387533	1.560718	6.774772	3.765389	0.065718	20.396484	-2.891977	0.000000	-8.656878	-1.111771	-3.932262	3.856641	0.067311	22.514287	1.489240	0.000000	-0.557220	0.077717	0.830370	-1.034813	0.103364	0.882268	-0.915457	0.188961	0.882268	-0.636847	0.188961	0.726574	-0.517434	0.158481	0.674676	-0.318395	0.120384	0.622777	-3.980166	0.879151	4.618268	0.000000	0.000000	2.134726	0.848051	-5.165716	35.990976	-9.509577	137.331427	0.083274	1.058763	-70.046397	-22.354391	41.398239	-12.364520	146.249389	0.066304	1.134408	-69.752881	-24.216223
2.864407	2.123765	8.467750	95.815945	0.034089	1.021925	0.714193	-9.773406	1.424614	6.336774	3.748147	0.065418	20.436587	-2.795909	0.000000	-8.899706	-1.015725	-4.078770	4.016122	0.070095	22.592839	2.239463	0.000000	-0.578474	0.051573	0.725188	-1.074285	0.068593	0.770512	-0.950376	0.125396	0.770512	-0.661138	0.125396	0.634539	-0.537171	0.105169	0.589215	-0.330540	0.079887	0.543891	-4.131985	0.583409	4.033276	0.000000	0.000000	1.545052	0.931614	-5.016083	36.595548	-8.876282	136.526750	0.082322	0.956026	-69.827089	-22.339888	41.605774	-12.764738	146.863558	0.064818	1.155975	-69.761830	-24.243321
2.881356	1.907820	8.778362	96.092340	0.034367	1.022617	0.714795	-10.129543	1.300524	5.985646	3.734712	0.065183	20.493772	-2.695133	0.000000	-9.144233	-0.927804	-4.102767	4.127087	0.072031	22.661671	2.728974	0.000000	-0.599871	0.032479	0.613869	-1.114020	0.043197	0.652236	-0.985527	0.078970	0.652236	-0.685592	0.078970	0.537135	-0.557040	0.066231	0.498768	-0.342766	0.050310	0.460402	-4.284816	0.367410	3.414155	0.000000	0.000000	1.075043	0.885816	-4.677550	37.331900	-8.223476	135.912049	0.081120	0.893934	-69.749927	-22.398487	41.594246	-13.263902	147.317264	0.063443	1.182323	-69.772337	-24.274674
2.898305	1.740677	9.048007	96.245607	0.034566	1.023167	0.715212	-10.427280	1.187405	5.564624	3.748309	0.065420	20.631000	-2.323504	0.000000	-9.377366	-0.854113	-4.223872	4.200344	0.073310	22.790324	3.221661	0.000000	-0.620332	0.023290	0.490533	-1.152018	0.030976	0.521191	-1.019143	0.056628	0.521191	-0.708977	0.056628	0.429216	-0.576040	0.047493	0.398558	-0.354458	0.036076	0.367900	-4.430968	0.263462	2.728198	0.000000	0.000000	0.736284	0.681183	-4.093749	38.232090	-7.508611	135.526828	0.079716	0.868336	-69.732129	-22.507755	41.301252	-13.845814	147.424066	0.062359	1.202580	-69.782050	-24.302983
2.915254	1.633013	9.268755	96.284366	0.034623	1.023558	0.715418	-10.666209	1.095309	5.227949	3.775278	0.065891	20.797868	-1.897042	0.000000	-9.594052	-0.799459	-4.280939	4.229746	0.073823	22.922562	3.502326	0.000000	-0.638479	0.026387	0.342304	-1.185719	0.035095	0.363698	-1.048957	0.064158	0.363698	-0.729717	0.064158	0.299516	-0.592891	0.053809	0.278122	-0.364827	0.040874	0.256728	-4.560590	0.298499	1.903793	0.000000	0.000000	0.549473	0.306501	-3.163433	39.316372	-6.699969	135.455429	0.078123	0.864333	-69.732938	-22.663575	40.680350	-14.489013	146.986493	0.061713	1.212823	-69.789756	-24.326269
2.932203	1.597437	9.428843	96.194094	0.034510	1.023793	0.715460	-10.827211	1.032786	4.987038	3.818119	0.066639	20.971763	-1.434269	0.000000	-9.779698	-0.769853	-4.279441	4.218310	0.073623	23.040841	3.543150	0.000000	-0.652135	0.044306	0.167017	-1.211079	0.058927	0.177455	-1.071392	0.107725	0.177455	-0.745325	0.107725	0.146140	-0.605572	0.090348	0.135701	-0.372630	0.068630	0.125263	-4.658132	0.501196	0.928897	0.000000	0.000000	0.503162	-0.268629	-1.849148	40.596296	-5.797533	135.763657	0.076290	0.871010	-69.738068	-22.853038	39.737744	-15.161994	145.857633	0.061621	1.206565	-69.794702	-24.336905
2.949153	1.633137	9.548503	95.989870	0.034228	1.023929	0.715436	-10.925120	1.003599	4.836635	3.880109	0.067721	21.146909	-0.952221	0.000000	-9.943867	-0.768053	-4.207717	4.178362	0.072926	23.136341	3.335190	0.000000	-0.663436	0.076289	-0.026224	-1.232067	0.101464	-0.027863	-1.089959	0.185489	-0.027863	-0.758241	0.185489	-0.022946	-0.616066	0.155569	-0.021307	-0.379087	0.118172	-0.019668	-4.738855	0.862997	-0.145848	0.000000	0.000000	0.540842	-1.029028	-0.254183	42.054325	-4.859341	136.450193	0.074210	0.872297	-69.742384	-23.052745	38.572797	-15.823075	144.048092	0.062141	1.184970	-69.797236	-24.333866
2.966102	1.734910	9.641498	95.668996	0.033847	1.024037	0.715486	-10.963834	1.004912	4.776859	3.965437	0.069210	21.310670	-0.447734	0.000000	-10.092238	-0.791637	-4.096627	4.115335	0.071826	23.185720	2.901272	0.000000	-0.673510	0.119872	-0.207969	-1.250776	0.159430	-0.220967	-1.106510	0.291458	-0.220967	-0.769755	0.291458	-0.181973	-0.625422	0.244444	-0.168975	-0.384844	0.185682	-0.155977	-4.810817	1.356019	-1.156661	0.000000	0.000000	0.583528	-1.898309	1.439749	43.615513	-4.003281	137.360760	0.072000	0.866631	-69.745014	-23.295805	37.348116	-16.397626	141.777209	0.063107	1.150933	-69.797848	-24.320032
2.983051	1.869899	9.718329	95.331199	0.033383	1.024167	0.715724	-10.964304	1.026647	4.726081	4.052838	0.070735	21.441016	0.057789	0.000000	-10.209822	-0.833680	-3.905972	4.054027	0.070756	23.184445	2.327417	0.000000	-0.683353	0.167263	-0.354588	-1.269055	0.222460	-0.376750	-1.122680	0.406684	-0.376750	-0.781004	0.406684	-0.310264	-0.634562	0.341084	-0.288103	-0.390468	0.259091	-0.265941	-4.881122	1.892118	-1.972111	0.000000	0.000000	0.575160	-2.717913	2.954408	45.138671	-3.353639	138.364646	0.069708	0.864599	-69.747452	-23.507541	36.263480	-16.791323	139.474282	0.064245	1.103810	-69.797509	-24.297328
3.000000	2.055236	9.781781	94.909394	0.032957	1.024350	0.716201	-10.910374	1.079827	4.753612	4.165064	0.072694	21.525016	0.564341	0.000000	-10.303052	-0.902615	-3.702246	3.991781	0.069670	23.116313	1.583368	0.000000	-0.692553	0.218058	-0.415600	-1.286140	0.290017	-0.441575	-1.137795	0.530187	-0.441575	-0.791518	0.530187	-0.363650	-0.643104	0.444664	-0.337675	-0.395725	0.337772	-0.311700	-4.946834	2.466717	-2.311443	0.000000	0.000000	0.483996	-3.431167	3.989564	46.441078	-3.027674	139.298253	0.067568	0.848641	-69.749849	-23.737580	35.459687	-16.843324	137.447222	0.065376	1.059982	-69.796541	-24.279288
3.016949	2.250761	9.839829	94.488561	0.032559	1.024578	0.716851	-10.833517	1.140902	4.771468	4.279238	0.074687	21.579105	1.085853	0.000000	-10.372492	-0.983517	-3.619317	3.944496	0.068844	23.050413	0.989624	0.000000	-0.701009	0.265208	-0.368227	-1.301845	0.352726	-0.391242	-1.151688	0.644826	-0.391242	-0.801184	0.644826	-0.322199	-0.650957	0.540812	-0.299185	-0.400557	0.410807	-0.276170	-5.007240	3.000083	-2.047970	0.000000	0.000000	0.307366	-3.953687	4.343296	47.304388	-3.047621	139.917163	0.065826	0.835099	-69.751418	-23.934026	35.049206	-16.423916	136.093559	0.066238	1.008569	-69.797030	-24.261001
3.033898	2.468564	9.896853	94.054578	0.032199	1.024815	0.717649	-10.736686	1.221840	4.833405	4.401305	0.076817	21.595282	1.563782	0.000000	-10.431254	-1.081112	-3.550548	3.897416	0.068023	22.961504	0.364968	0.000000	-0.708670	0.310283	-0.185197	-1.316071	0.412676	-0.196772	-1.164274	0.754422	-0.196772	-0.809939	0.754422	-0.162047	-0.658071	0.632729	-0.150473	-0.404934	0.480628	-0.138898	-5.061959	3.509983	-1.030010	0.000000	0.000000	0.076098	-4.309989	3.838105	47.564204	-3.423269	140.211228	0.064776	0.821115	-69.749887	-23.971956	35.080065	-15.404722	135.542919	0.066698	0.957537	-69.799098	-24.249184
3.050847	2.717500	9.974552	93.624990	0.031856	1.025025	0.718601	-10.646971	1.338464	4.949077	4.524168	0.078962	21.567918	1.962352	0.000000	-10.497118	-1.209434	-3.481954	3.857174	0.067320	22.878990	-0.297787	0.000000	-0.717755	0.355635	0.147785	-1.332943	0.472994	0.157021	-1.179200	0.864690	0.157021	-0.820323	0.864690	0.129312	-0.666508	0.725210	0.120075	-0.410125	0.550878	0.110839	-5.126855	4.023009	0.821935	0.000000	0.000000	-0.161388	-4.512312	2.379184	47.105612	-4.159152	140.197282	0.064694	0.805020	-69.741464	-23.817392	35.580131	-13.698975	135.811316	0.066676	0.911399	-69.802991	-24.246727
3.067797	2.973050	10.084589	93.278865	0.031497	1.025164	0.719708	-10.590138	1.486294	5.083645	4.637258	0.080935	21.513106	2.223310	0.000000	-10.574010	-1.363830	-3.363740	3.830324	0.066852	22.825948	-0.939264	0.000000	-0.729261	0.399936	0.624865	-1.354310	0.531915	0.663919	-1.198102	0.972404	0.663919	-0.833472	0.972404	0.546757	-0.677191	0.815549	0.507703	-0.416700	0.619501	0.468649	-5.209036	4.524156	3.475314	0.000000	0.000000	-0.352551	-4.574662	-0.008412	45.877794	-5.236909	139.915083	0.065674	0.797518	-69.726156	-23.495155	36.555885	-11.291956	136.846663	0.066127	0.866619	-69.808980	-24.253661
